<mxfile host="app.diagrams.net" modified="2023-11-22T06:40:53.076Z" agent="Mozilla/5.0 (Macintosh; Intel Mac OS X 10_15_7) AppleWebKit/537.36 (KHTML, like Gecko) Chrome/119.0.0.0 Safari/537.36" version="22.1.3" etag="vGissSKy1I07-MQUjZ8e" type="github">
  <diagram name="ページ1" id="Ngc2U4rSFIAj3Cl8-syl">
    <mxGraphModel>
      <root>
        <mxCell id="0" />
        <mxCell id="1" parent="0" />
      </root>
    </mxGraphModel>
  </diagram>
</mxfile>
